<?xml version="1.0" encoding="utf-8"?>
<!-- Generator: Adobe Illustrator 16.0.4, SVG Export Plug-In . SVG Version: 6.00 Build 0)  -->
<!DOCTYPE svg PUBLIC "-//W3C//DTD SVG 1.1//EN" "http://www.w3.org/Graphics/SVG/1.1/DTD/svg11.dtd">
<svg version="1.1" id="Layer_1" xmlns="http://www.w3.org/2000/svg" xmlns:xlink="http://www.w3.org/1999/xlink" x="0px" y="0px"
	 width="857.09px" height="201.206px" viewBox="0 0 857.09 201.206" enable-background="new 0 0 857.09 201.206"
	 xml:space="preserve">
<path fill="#FFFFFF" d="M418.129,124.711c-0.674-0.848-2.688-6.882-4.104-12.288c-0.492-1.882-2.477-8.457-4.408-14.608
	c-1.93-6.156-4.641-15.394-6.02-20.534c-2.916-10.867-4.903-17.36-6.727-21.969c-1.809-4.577-1.722-5.232,0.653-4.994
	c2.831,0.282,4.841,4.296,8.352,16.683c1.602,5.646,3.983,14.046,5.29,18.667c4.447,15.719,7.214,27.843,8.419,36.865
	C419.978,125.472,419.406,126.325,418.129,124.711z"/>
<path fill="#FFFFFF" d="M577.676,125.014c-0.777-0.778-2.066-0.716-9.831,0.466c-4.918,0.745-9.571,1.605-10.341,1.915
	c-1.808,0.719-1.781,2.517,0.069,4.734c2.171,2.606,3.51,5.502,3.51,7.61c0,3.716-6.464,6.908-14,6.908
	c-9.796,0-13.951-3.121-17.784-13.37c-2.273-6.08-6.215-6.863-7.124-1.416c-0.585,3.514-2.941,7.449-6.067,10.124
	c-2.29,1.962-2.667,2.093-3.826,1.327c-0.707-0.465-1.989-2.229-2.842-3.924c-2.422-4.79-3.592-6.326-5.638-7.383
	c-2.534-1.312-3.925-0.742-5.226,2.141c-1.195,2.649-4.248,6.278-5.28,6.278c-1.083,0-0.75-2.304,0.898-6.224
	c0.854-2.031,1.556-4.25,1.556-4.927c0-2.12-1.379-4.385-3.446-5.662c-2.478-1.535-9.374-1.772-17.244-0.601
	c-4.18,0.624-5.812,0.644-7.029,0.09c-3.448-1.57-8.787-0.637-13.526,2.37c-5.751,3.645-6.855,8.354-3.568,15.237
	c4.148,8.694,11.471,10.046,21.562,3.982c5.769-3.463,7.792-8.126,5.805-13.357c-0.503-1.322-0.445-1.905,0.254-2.609
	c1.098-1.095,9.367-1.835,9.948-0.889c0.217,0.349-0.333,2.554-1.217,4.9c-2.375,6.299-1.44,10.302,3.036,12.971
	c2.543,1.52,5.119,0.678,8.906-2.905l3.251-3.073l1.864,2.681c2.872,4.138,5.809,6.669,7.898,6.814
	c2.83,0.193,6.848-2.229,9.698-5.854c1.409-1.792,2.755-3.329,2.983-3.418c0.232-0.091,1.668,1.338,3.199,3.175
	c3.245,3.9,6.332,6.271,9.342,7.179c1.182,0.353,5.648,0.579,9.928,0.499c7.158-0.14,8.062-0.293,11.331-1.932
	c6.345-3.181,7.966-6.392,6.351-12.588c-0.481-1.864-0.882-3.641-0.882-3.953c0-0.718,2.885-2.007,8.4-3.759
	C578.024,126.848,578.898,126.238,577.676,125.014z M466.123,142.795c-2.589,0.745-6.729,0.909-8.191,0.322
	c-1.263-0.51-3.25-4.936-3.25-7.244c0-3.026,2.326-6.092,5.924-7.802c5.563-2.643,6.624-2.539,10.214,0.994
	c2.56,2.521,3.155,3.501,3.149,5.21C473.961,138.014,470.804,141.441,466.123,142.795z"/>
<path fill="#FFFFFF" d="M350.925,120.46c-1.623-0.026-3.795-0.112-4.822-0.19c-1.026-0.079-3.126,0.096-4.668,0.389
	c-1.539,0.289-5.18,0.938-8.088,1.436c-2.907,0.501-5.919,1.055-6.689,1.232c-2.173,0.499-1.703-0.486,2.386-4.998
	c3.999-4.413,7.559-9.545,9.493-13.682c1.299-2.789,3.521-8.932,3.521-9.745c0-1.105-2.484,1.079-3.2,2.812
	c-1.911,4.606-11.279,16.835-17.784,23.208c-6.302,6.177-7.386,4.811-7.251-9.119c0.157-16.409,6.139-36.223,14.264-47.259
	c2.976-4.043,8.94-9.297,11.988-10.559c2.456-1.017,2.475-1.48,0.13-3.152c-1.846-1.312-1.871-1.312-4.512-0.143
	c-6.205,2.744-14.155,11.307-18.444,19.864c-3.899,7.779-7.149,18.457-8.768,28.807c-0.822,5.233-0.8,18.266,0.034,21.465
	c0.358,1.369,0.889,3.469,1.181,4.668c0.295,1.198,0.715,2.755,0.937,3.461c0.98,3.132-11.017,11.467-15.188,10.549
	c-1.622-0.356-2.01-0.91-3.221-4.564c-1.719-5.191-2.795-6.872-4.705-7.35c-0.826-0.207-1.907-1.157-2.398-2.112
	c-0.976-1.889-4.476-4.34-6.195-4.34c-5.002,0-17.029,10.438-20.073,17.419c-2.256,5.178-2.296,5.229-4.9,6.145
	c-3.284,1.154-11.456,1.244-13.501,0.146c-4.764-2.55-2.847-10.592,3.568-14.951c2.666-1.813,5.327-2.768,5.327-1.913
	c0,0.771-5.017,6.955-6.981,8.609c-2.689,2.263-1.989,5.077,1.263,5.077c2.918,0,12.268-11.39,12.989-15.824
	c0.419-2.585-0.549-4.421-3.006-5.692c-2.47-1.275-5.031-0.801-8.881,1.639l-2.97,1.884l-1.547-1.669
	c-1.533-1.652-1.601-1.666-7.524-1.248c-5.289,0.371-6.479,0.687-10.277,2.734c-2.361,1.272-6.048,3.755-8.189,5.519
	c-5.692,4.686-5.872,6.958-1.065,13.448c1.325,1.792,2.583,3.757,2.8,4.368c0.946,2.693-4.319,1.67-7.523-1.463
	c-4.637-4.534-5.756-15.508-1.996-19.571c1.497-1.616,0.795-2.735-2.001-3.188c-2.074-0.335-2.272-0.206-3.875,2.53
	c-5.678,9.69,0.339,25.397,10.828,28.258c4.737,1.291,10.006,0.465,11.198-1.759c0.691-1.288-1.548-7.55-4.047-11.33
	c-0.853-1.289-1.551-2.956-1.551-3.704c0-2.046,4.857-6.319,10.06-8.856c4.042-1.972,12.085-3.957,12.866-3.177
	c0.158,0.155-1.124,1.673-2.845,3.366c-3.713,3.657-6.393,8.69-6.393,12.021c0,2.896,1.857,6.729,4.125,8.516
	c4.345,3.416,13.807,3.95,20.334,1.146l2.988-1.281l1.852,1.365c1.015,0.754,3.206,1.529,4.872,1.727
	c4.197,0.498,8.093-1.733,15.244-8.73c5.026-4.921,5.699-5.388,6.266-4.356c1.378,2.514,5.346,5.774,7.521,6.184
	c3.722,0.698,10.008-1.367,13.322-4.377c5.046-4.585,4.641-4.494,7.358-1.639c1.839,1.932,2.892,2.543,4.393,2.543
	c1.72,0,1.938-0.182,1.685-1.402c-0.161-0.769-0.466-3.01-0.68-4.974c-0.463-4.264-1.452-3.677,12.346-7.324
	c5.194-1.373,11.702-3.195,14.461-4.044c2.756-0.851,5.489-1.545,6.066-1.545c0.579,0,1.049-0.279,1.049-0.623
	C353.878,120.795,352.549,120.49,350.925,120.46z M278.216,138.189c-0.555,1.442-7.564,6.634-9.834,7.286
	c-4.417,1.266-3.817,0.181,1.66-3.003c2.477-1.439,5.418-3.218,6.531-3.954C278.188,137.454,278.522,137.386,278.216,138.189z
	 M270.878,137.157c-2.603,1.455-4.878,2.644-5.058,2.644c-0.854,0,1.788-3.727,4.477-6.309c4.163-4.007,9.539-6.609,9.539-4.624
	C279.835,130.634,275.69,134.468,270.878,137.157z"/>
<path fill="#FFFFFF" d="M794.955,148.199c-2.699-3.075-5.545-4.616-17.028-9.21c-5.476-2.192-11.493-4.762-13.376-5.713
	c-3.711-1.875-8.089-5.086-8.089-5.932c0-0.291,0.91-1.992,2.021-3.782c1.799-2.893,2.024-3.755,2.024-7.778
	c0-4.131-0.154-4.683-1.786-6.387c-2.316-2.42-4.852-3.433-7.381-2.956c-7.078,1.336-10.255,8.312-6.924,15.196
	c0.881,1.819,1.483,3.417,1.351,3.555c-0.14,0.139-4.158,0.427-8.936,0.638c-4.772,0.214-10.104,0.778-11.848,1.256
	c-3.729,1.02-6.479,2.994-6.479,4.648c0,0.65,1.402,3.246,3.111,5.768c3.539,5.214,3.901,6.976,1.532,7.432
	c-3.696,0.706-12.489-2.003-14.462-4.454c-2.402-2.982-2.833-4.194-3.287-9.162c-0.635-7.007-2.615-9.397-5.438-6.576
	c-0.938,0.938-1.063,1.769-0.747,5.038c0.436,4.568-0.664,7.741-3.438,9.925c-5.005,3.936-8.985,1.354-8.996-5.835
	c-0.006-2.234-1.534-4.651-2.945-4.651c-1.49,0-3.281,1.867-3.281,3.423c0,3.363-7.932,12.765-12.283,14.56
	c-1.755,0.724-2.225,0.699-3.578-0.189c-2.068-1.356-2.098-5.12-0.076-9.395c2.622-5.535,7.57-9.021,12.807-9.021
	c2.026,0,2.507-0.222,2.507-1.147c0-1.682-1.818-3.015-4.778-3.501c-4.869-0.797-11.76,3.687-15.578,10.139
	c-2.094,3.541-2.681,10.134-1.161,13.074c1.396,2.699,5.661,5.704,8.081,5.697c3.51-0.015,7.968-2.669,12.028-7.17l3.824-4.238
	l2.477,2.239c4.317,3.9,9.836,3.916,14.362,0.037c2.95-2.522,3.266-2.473,7.949,1.313c3.389,2.735,8.445,4.606,13.817,5.104
	c7.246,0.673,9.379-0.509,9.379-5.2c0-2.105-0.572-3.874-2.191-6.768l-2.19-3.923l1.36-0.728c0.75-0.402,6.289-1.232,12.305-1.847
	l10.939-1.12l4.203,2.765c2.309,1.518,4.866,3.069,5.681,3.439c0.837,0.381,2.655,2.725,4.176,5.381
	c4.412,7.709,11.53,14.583,16.263,15.709c2.873,0.681,2.754,0.681,7.273-0.092c5.07-0.866,6.027-1.356,7.55-3.853
	C797.302,151.281,797.24,150.802,794.955,148.199z M755.089,116.457c-0.172,2.103-0.716,3.894-1.417,4.668
	c-0.623,0.689-1.519,1.254-1.988,1.254c-0.98,0-2.064-2.484-2.064-4.734c0-1.904,2.579-4.6,4.403-4.6
	C755.277,113.045,755.354,113.282,755.089,116.457z M787.722,150.922c-0.646,0.346-2.555,0.801-4.238,1.005
	c-3.288,0.405-5.063-0.237-8.402-3.05c-2.398-2.021-6.93-7.283-6.574-7.638c0.276-0.272,6.589,2.116,12.223,4.63
	c1.543,0.69,3.702,1.597,4.804,2.014C788.373,148.966,789.21,150.126,787.722,150.922z"/>
<path fill="#FFFFFF" d="M157.509,159.151c-8.372-4.25-12.872-12.866-14.166-27.128c-1.028-11.327,2.712-28.666,9.983-46.262
	c1.179-2.857,2.042-5.3,1.913-5.43c-0.128-0.128-1.199,0.319-2.375,0.993c-1.176,0.674-3.52,1.954-5.203,2.849
	c-1.685,0.895-4.485,2.539-6.223,3.653c-1.738,1.116-6.381,3.921-10.316,6.234c-11.272,6.631-35.252,21.732-42.934,27.041
	c-3.933,2.716-17.384,10.497-19.768,11.437c-3.524,1.385-5.923,1.318-7.301-0.202c-2.052-2.268-0.471-4.047,6.696-7.535
	c3.505-1.703,8.473-4.468,11.04-6.143c2.567-1.672,7.047-4.515,9.956-6.319c2.91-1.799,5.666-3.645,6.127-4.096
	c0.459-0.452,1.719-1.274,2.8-1.829c1.079-0.555,2.753-1.668,3.722-2.474c0.967-0.809,2.02-1.467,2.34-1.467
	c0.32,0,2.468-1.214,4.774-2.699c4.908-3.156,8.677-5.458,17.415-10.635c10.182-6.033,10.866-6.425,14.467-8.287
	c1.885-0.973,4.544-2.462,5.911-3.312c1.369-0.851,4.939-2.797,7.932-4.329l5.441-2.784l3.799-7.467
	c5.643-11.085,9.353-17.909,10.4-19.134c2.136-2.494,6.927-0.303,6.024,2.757c-0.562,1.912-4.526,9.72-5.991,11.807
	c-2.994,4.263-0.656,4.15,9.106-0.44c2.397-1.125,6.035-2.737,8.088-3.582c2.055-0.844,10.175-4.461,18.045-8.036
	c7.873-3.575,18.373-8.12,23.334-10.096c4.962-1.975,11.264-4.513,14-5.639c2.738-1.123,7.92-3.073,11.511-4.331
	c3.594-1.256,7.375-2.64,8.401-3.073c1.027-0.433,5.366-1.837,9.646-3.119c4.276-1.281,8.337-2.569,9.021-2.86
	c0.685-0.292,1.944-0.705,2.8-0.917c2.17-0.537,11.061-3.226,17.736-5.365c3.079-0.987,5.881-1.785,6.221-1.776
	c1.189,0.034-6.883,3.533-12.136,5.257c-2.91,0.955-6.128,2.164-7.155,2.682c-1.026,0.523-4.808,1.869-8.4,2.995
	c-10.404,3.26-15.819,5.268-16.488,6.108c-0.344,0.431-2.162,1.358-4.045,2.066c-8.036,3.017-21.516,8.391-22.089,8.809
	c-0.344,0.248-2.723,1.256-5.289,2.24c-2.568,0.983-5.088,2.135-5.6,2.558c-0.512,0.424-1.704,0.96-2.644,1.197
	c-0.94,0.235-1.711,0.68-1.711,0.991c0,0.311-1.049,1.022-2.333,1.576c-1.284,0.555-4.659,2.092-7.5,3.413
	c-2.844,1.322-5.287,2.401-5.432,2.401c-1.492,0-32.021,15.361-39.292,19.77l-5.713,3.462l-2.793,5.962
	c-1.536,3.279-3.541,7.922-4.452,10.316c-0.911,2.396-2.051,5.335-2.53,6.533c-6.431,16.078-7.7,38.434-2.808,49.493
	c1.654,3.747,5.653,7.536,8.855,8.397c3.296,0.89,9.828,1.076,13.819,0.396c2.328-0.396,2.964-0.337,2.764,0.266
	c-0.143,0.43-0.664,0.989-1.157,1.243c-4.971,2.561-6.693,3.078-11.333,3.416C161.57,161.052,161.1,160.968,157.509,159.151z"/>
<path fill="#FFFFFF" d="M391.214,180.019c0-0.808,0.562-2.184,1.243-3.053c0.687-0.871,1.245-1.855,1.245-2.188
	c0-0.329,0.389-0.926,0.864-1.317c0.775-0.646,5.987-7.947,7.537-10.561c2.734-4.61,18.45-25.771,26.104-35.145
	c2.752-3.374,7.107-8.723,9.674-11.886c12.584-15.52,25.216-29.83,35.265-39.956C485.518,63.448,491,58.291,491.878,58.291
	c0.326,0,1.37-0.612,2.319-1.361c3.201-2.517,1.288-0.107-6.539,8.236c-16.943,18.062-14.772,15.597-32.045,36.388
	c-3.767,4.529-7.966,9.708-9.333,11.504c-1.367,1.795-4.034,5.119-5.929,7.38c-1.893,2.268-5.015,6.217-6.943,8.786
	c-1.928,2.566-6.08,8.03-9.229,12.134c-3.146,4.106-6.605,8.668-7.677,10.138c-1.078,1.471-3.09,4.13-4.468,5.909
	c-3.264,4.211-11.156,15.137-14.155,19.601c-2.641,3.931-3.264,4.462-5.267,4.476C391.555,181.487,391.214,181.133,391.214,180.019z
	"/>
<path fill="#FFFFFF" d="M728.462,181.682c-5.108-0.544-19.626-3.644-27.688-5.915c-4.791-1.348-17.529-5.212-28.313-8.581
	c-25.11-7.851-27.782-8.567-34.533-9.231c-6.447-0.635-16.419-0.378-21.646,0.556c-8.228,1.474-17.56,5.521-22.846,9.917
	c-5.94,4.938-8.857,5.978-10.791,3.838c-1.595-1.759-1.244-2.897,1.48-4.787c6.936-4.807,21.378-23.533,26.871-34.837l1.335-2.75
	l-1.669-1.546c-2.723-2.523-2.173-3.833,2.279-5.408c2.808-0.997,3.491-2.137,5.793-9.674c1.505-4.935,1.682-6.469,1.677-14.836
	c0-7.567-0.255-10.282-1.338-14.352c-1.467-5.508-2.925-9.338-3.746-9.847c-0.293-0.178-8.487-0.463-18.211-0.628
	c-9.726-0.169-18.9-0.567-20.395-0.891c-1.49-0.32-3.436-1.305-4.317-2.188c-1.585-1.587-1.59-1.616-0.409-2.918
	c1.139-1.259,1.513-1.295,8.36-0.801c9.054,0.652,30.245,0.673,30.885,0.034c0.7-0.699-0.812-4.659-3.082-8.072
	c-1.753-2.637-2.212-2.956-4.261-2.956c-1.673-0.001-2.567-0.381-3.288-1.402c-0.939-1.325-0.898-1.478,0.699-2.867
	c1.375-1.193,2.162-1.402,4.222-1.134c3.276,0.431,6.159,3.588,9.809,10.729c2.245,4.395,2.922,5.246,4.186,5.249
	c3.118,0.004,23.647-1.95,30.225-2.881c3.766-0.528,9.085-1.223,11.822-1.536c5.258-0.6,9.422-1.336,15.556-2.749
	c2.054-0.473,7.656-1.586,12.446-2.474c4.79-0.884,10.108-1.997,11.82-2.471c7.032-1.948,10.967-2.886,13.199-3.146
	c1.295-0.154,3.494-0.583,4.883-0.957c3.722-0.998,6.809-0.574,6.809,0.942c0,0.989-1.149,1.576-6.224,3.196
	c-3.422,1.091-7.34,2.293-8.712,2.676c-1.367,0.379-5.568,1.56-9.333,2.625c-16.19,4.573-42.456,9.63-56.313,10.846
	c-9.244,0.809-23.224,2.735-23.762,3.271c-0.316,0.316,0.123,2.407,1.035,4.945c3.353,9.291,4.365,24.731,2.187,33.375
	c-1.159,4.604-1.525,7.23-1.01,7.23c0.125,0,2.532-0.573,5.358-1.276c4.847-1.209,5.197-1.221,6.307-0.216
	c1.707,1.545,1.464,2.348-1.157,3.803c-2.243,1.242-9.003,4.01-11.741,4.804c-1.933,0.564-2.884,1.859-6.412,8.752
	c-1.751,3.424-4.091,7.542-5.194,9.155c-4.489,6.55-6.83,10.501-6.442,10.887c0.223,0.224,2.434-0.056,4.909-0.62
	c8.237-1.88,14.768-2.455,22.979-2.025c11.046,0.582,17.405,2.115,45.302,10.921c19.438,6.135,21.655,6.781,31.734,9.239
	c23.71,5.781,37.418,5.553,50.932-0.853c2.517-1.189,4.951-2.168,5.41-2.168c1.568,0,1.534,1.14-0.093,3.071
	C760.458,179.38,743.891,183.322,728.462,181.682z"/>
</svg>
